<svg width="122" height="124" viewBox="0 0 122 124" fill="none" xmlns="http://www.w3.org/2000/svg">
<path d="M13.5735 61.5151C13.5735 71.0086 16.3886 80.2889 21.6629 88.1825C26.9373 96.0761 34.4338 102.228 43.2047 105.861C51.9755 109.494 61.6267 110.445 70.9378 108.593C80.2489 106.741 88.8017 102.169 95.5146 95.4563C102.228 88.7433 106.799 80.1906 108.651 70.8795C110.503 61.5684 109.553 51.9172 105.92 43.1463C102.287 34.3755 96.1344 26.8789 88.2409 21.6046C80.3473 16.3303 71.067 13.5151 61.5735 13.5151" stroke="#3030AD" stroke-width="3" stroke-linecap="round"/>
<path d="M119.956 46.4709C116.884 35.0083 110.483 24.714 101.561 16.8896C92.6388 9.06524 81.5969 4.06225 69.8316 2.51331C58.0662 0.964369 46.1058 2.93905 35.4627 8.18763C24.8196 13.4362 15.9719 21.723 10.0385 32C4.10504 42.277 1.35234 54.0827 2.12846 65.9242C2.90459 77.7656 7.1747 89.111 14.3988 98.5257C21.6229 107.94 31.4765 115.001 42.7136 118.816C53.9507 122.63 66.0666 123.027 77.5291 119.956" stroke="#EBEBF9" stroke-width="3" stroke-linecap="round"/>
<path fill-rule="evenodd" clip-rule="evenodd" d="M65.2109 73.1299L70.3594 75.3714C73.0075 76.5622 74.7129 79.2242 74.7129 82.1571V89.179C74.7129 89.6321 74.3514 89.9993 73.9054 89.9993C73.4594 89.9993 73.0979 89.6321 73.0979 89.179V82.1571C73.0979 79.8728 71.7698 77.7995 69.7143 76.8753L65.3552 74.9774C64.6542 76.7124 63.4859 78.2554 62.0006 79.3853C60.2158 80.7431 58.0908 81.4608 55.8553 81.4608C54.2452 81.4608 52.7033 81.0921 51.2723 80.3651C50.8734 80.1623 50.7118 79.6696 50.9113 79.2645C51.1109 78.8592 51.5958 78.6952 51.9947 78.8976C53.1993 79.5098 54.4982 79.8201 55.8553 79.8201C57.739 79.8201 59.5292 79.2157 61.0325 78.0721C62.2923 77.1137 63.2818 75.8037 63.8711 74.3313L61.3856 73.2493C60.6526 75.67 58.4349 77.3896 55.8569 77.3896C53.2964 77.3896 51.0828 75.6842 50.3376 73.2813L47.8576 74.3766C48.2807 75.4185 48.9039 76.3801 49.6852 77.1887C49.9976 77.5121 49.9929 78.0315 49.6746 78.3488C49.5174 78.5054 49.3131 78.5836 49.109 78.5836C48.8998 78.5836 48.6908 78.5016 48.5327 78.338C47.6134 77.3866 46.878 76.2562 46.3761 75.0308L42.1056 76.9167C39.9817 77.8241 38.615 79.9144 38.615 82.2458V89.1791C38.615 89.6322 38.2535 89.9994 37.8075 89.9994C37.3615 89.9994 37 89.6322 37 89.1791V82.2458C37 79.2522 38.7548 76.5683 41.4706 75.4082L46.5181 73.1792L46.5198 73.1784L50.0727 71.6093C50.0726 71.6022 50.0724 71.5951 50.0722 71.5881C50.0719 71.5807 50.0716 71.5734 50.0713 71.566L50.0713 71.566C50.0705 71.5475 50.0697 71.5291 50.0697 71.5107V67.9947C48.2015 66.3133 47.1368 63.921 47.1368 61.3695V58.272V58.2715V58.2709V53.8544C47.1368 51.2623 49.2128 49.1534 51.7644 49.1534H54.1503C55.206 49.1534 56.2166 48.6972 56.9228 47.9018L58.1361 46.5125C58.3608 46.2551 58.7195 46.1674 59.0348 46.2929C60.6496 46.9355 62.0282 48.0428 63.0218 49.4949C64.0391 50.9821 64.5769 52.7281 64.5769 54.5445L64.5737 60.3437C65.1798 60.9228 66.4729 62.3692 66.4729 64.1691C66.4729 65.6835 65.26 66.9157 63.7691 66.9157C63.4258 66.9157 63.0977 66.8497 62.7952 66.7306C62.4529 67.1882 62.0678 67.6103 61.6431 67.9929V71.5109C61.6431 71.5224 61.6426 71.5339 61.6421 71.5455C61.6417 71.5556 61.6412 71.5657 61.6411 71.5758L65.197 73.1239L65.2109 73.1299ZM63.7691 65.275C64.3695 65.275 64.8579 64.7789 64.8579 64.169C64.8579 63.2313 64.2426 62.373 63.7773 61.8579C63.2759 62.4296 62.6804 63.3135 62.6804 64.169C62.6804 64.7789 63.1688 65.275 63.7691 65.275ZM48.752 61.3695V59.0153C49.1168 58.9421 49.4698 58.8171 49.7956 58.6446C50.2886 58.3849 50.7153 58.0259 51.0641 57.5773C51.3406 57.2219 51.2811 56.7059 50.9312 56.4252C50.5812 56.1443 50.0735 56.2048 49.797 56.5602C49.591 56.825 49.3405 57.0364 49.0506 57.189C48.9539 57.2402 48.854 57.2831 48.7521 57.3194V53.8543C48.7521 52.1668 50.1035 50.794 51.7646 50.794H54.1505C55.6627 50.794 57.1104 50.1403 58.1268 48.9955L58.9557 48.0464C61.4072 49.2481 62.9621 51.7412 62.9621 54.5445V56.2104C61.9543 56.5893 60.8937 56.7834 59.8031 56.7834C57.4282 56.7834 55.1778 55.8605 53.4663 54.1846C53.1451 53.8704 52.634 53.8801 52.3245 54.2059C52.0149 54.5321 52.0244 55.0514 52.3455 55.3659C54.3595 57.3378 57.0081 58.4239 59.8031 58.4239C60.8839 58.4239 61.9412 58.2633 62.9574 57.9458C62.9605 58.0034 62.9588 60.3585 62.9588 60.3585C62.3601 60.9502 61.0654 62.4307 61.0654 64.1689C61.0654 64.7393 61.2376 65.2696 61.5317 65.7091C61.1837 66.1789 60.7803 66.6038 60.3267 66.9768C59.068 68.0144 57.4799 68.586 55.8548 68.586C54.2304 68.586 52.6434 68.0152 51.3855 66.9784C49.7119 65.6014 48.752 63.557 48.752 61.3695ZM51.7164 72.0312C51.972 74.1511 53.7521 75.749 55.857 75.749C57.9745 75.749 59.7551 74.1406 59.999 72.0078C60.0184 71.842 60.0281 71.6754 60.0281 71.5107V69.144C58.7556 69.8478 57.3176 70.2266 55.8549 70.2266C54.3931 70.2266 52.9564 69.8484 51.6849 69.1457V71.5107C51.6849 71.6839 51.6954 71.8592 51.7164 72.0312Z" fill="#3030AD"/>
<path d="M45.0033 83.6675C44.5573 83.6675 44.1958 84.0347 44.1958 84.4878V89.1795C44.1958 89.6327 44.5573 89.9999 45.0033 89.9999C45.4492 89.9999 45.8108 89.6327 45.8108 89.1795V84.4878C45.8108 84.0348 45.4492 83.6675 45.0033 83.6675Z" fill="#AFAFE9"/>
<path d="M66.731 83.6675C66.2851 83.6675 65.9235 84.0347 65.9235 84.4878V89.1795C65.9235 89.6327 66.2851 89.9999 66.731 89.9999C67.177 89.9999 67.5386 89.6327 67.5386 89.1795V84.4878C67.5386 84.0348 67.1771 83.6675 66.731 83.6675Z" fill="#AFAFE9"/>
<path d="M82.4751 36.1591C82.1151 35.8914 81.61 35.9708 81.3465 36.3365C81.0831 36.7021 81.1613 37.2153 81.5212 37.4828C83.9407 39.2816 85.385 42.1713 85.385 45.2126C85.385 50.4906 81.1581 54.7846 75.9623 54.7846C75.5087 54.7846 75.0497 54.751 74.5984 54.6845C74.3279 54.6449 74.0566 54.7463 73.8764 54.9545C73.2588 55.6675 72.563 56.3035 71.8084 56.8453C70.8568 57.5282 69.8081 58.066 68.6914 58.4438C68.6603 58.4542 68.5879 58.4786 68.5262 58.3897C68.4682 58.306 68.5108 58.2507 68.5313 58.2242C69.2749 57.2613 69.8682 56.2004 70.295 55.0707C70.4487 54.6639 70.5835 54.2372 70.6956 53.8025C70.7796 53.477 70.6595 53.1324 70.3925 52.9333C67.9799 51.1339 66.5397 48.2476 66.5397 45.2126C66.5398 39.9347 70.7667 35.6406 75.9623 35.6406C76.9785 35.6406 77.9776 35.8037 78.9319 36.1255C79.3552 36.2685 79.8122 36.0354 79.9526 35.6053C80.093 35.1752 79.8638 34.711 79.4406 34.5684C78.322 34.1912 77.1517 34 75.9623 34C69.8762 34 64.9246 39.0299 64.9246 45.2127C64.9246 48.575 66.4334 51.7813 68.987 53.9018C68.9254 54.0997 68.8587 54.2939 68.7873 54.4829C68.4182 55.4597 67.9047 56.3778 67.2607 57.2117C66.7795 57.8347 66.7576 58.6878 67.2059 59.3345C67.5436 59.8215 68.0786 60.0938 68.6384 60.0937C68.8256 60.0937 69.0155 60.0633 69.2017 60.0003C70.4688 59.5717 71.6594 58.9609 72.7404 58.185C73.4814 57.6531 74.1722 57.0414 74.7984 56.3629C75.1857 56.4043 75.5756 56.4252 75.9623 56.4252C82.0485 56.4252 87 51.3952 87 45.2125C87 41.6501 85.3085 38.2656 82.4751 36.1591Z" fill="#3030AD"/>
<ellipse cx="75.9623" cy="51.2227" rx="0.807511" ry="0.820312" fill="#AFAFE9"/>
<path d="M79.674 42.1786C79.5737 40.2134 77.9768 38.6431 76.0387 38.6034C76.0132 38.6029 75.988 38.6025 75.9626 38.6025C74.1133 38.6025 72.5377 39.9873 72.2814 41.8526C72.2576 42.0256 72.2456 42.2025 72.2456 42.3783C72.2456 42.8314 72.6071 43.1986 73.0531 43.1986C73.499 43.1986 73.8606 42.8314 73.8606 42.3783C73.8606 42.2782 73.8674 42.1776 73.8809 42.0795C74.0277 41.0111 74.9374 40.2253 76.0061 40.2437C77.1017 40.2661 78.0044 41.1534 78.061 42.2636C78.0913 42.8562 77.8872 43.4189 77.4863 43.8476C77.0851 44.2769 76.5439 44.5133 75.9623 44.5133C75.5163 44.5133 75.1548 44.8804 75.1548 45.3336V48.424C75.1548 48.8771 75.5163 49.2443 75.9623 49.2443C76.4082 49.2443 76.7698 48.8771 76.7698 48.424V46.0627C77.4849 45.8998 78.147 45.5236 78.6575 44.9774C79.3665 44.2189 79.7274 43.2251 79.674 42.1786Z" fill="#AFAFE9"/>
</svg>
