<svg width="24" height="25" viewBox="0 0 24 25" fill="none" xmlns="http://www.w3.org/2000/svg">
<path d="M23.6942 22.1536L18.1301 16.5852C19.7663 14.5537 20.5612 11.9722 20.3514 9.37221C20.1415 6.77222 18.9428 4.35164 17.002 2.60884C15.0612 0.86603 12.5261 -0.0663435 9.91862 0.00367655C7.31111 0.0736966 4.82968 1.14078 2.98523 2.98523C1.14078 4.82968 0.0736966 7.31111 0.00367655 9.91862C-0.0663435 12.5261 0.86603 15.0612 2.60884 17.002C4.35164 18.9428 6.77222 20.1415 9.37221 20.3514C11.9722 20.5612 14.5537 19.7663 16.5852 18.1301L22.1536 23.6985C22.3591 23.897 22.6343 24.0068 22.92 24.0043C23.2056 24.0018 23.4789 23.8873 23.6809 23.6853C23.8829 23.4833 23.9975 23.21 24 22.9243C24.0024 22.6387 23.8926 22.3635 23.6942 22.158V22.1536ZM2.22353 10.2128C2.22353 8.63239 2.69218 7.0875 3.57022 5.77347C4.44826 4.45944 5.69624 3.4353 7.15635 2.83056C8.61646 2.22582 10.2231 2.06765 11.7731 2.37605C13.3231 2.68445 14.7469 3.44556 15.8643 4.56314C16.9817 5.68072 17.7426 7.10456 18.0508 8.65461C18.359 10.2047 18.2006 11.8113 17.5957 13.2713C16.9907 14.7313 15.9664 15.9792 14.6523 16.857C13.3381 17.7349 11.7932 18.2033 10.2128 18.2031C8.09451 18.2005 6.06375 17.3578 4.56601 15.8599C3.06826 14.3619 2.22583 12.3311 2.22353 10.2128V10.2128Z" fill="white"/>
</svg>
