<svg width="24" height="19" viewBox="0 0 24 19" fill="none" xmlns="http://www.w3.org/2000/svg">
<path d="M1.09091 2.5H22.9091C23.5116 2.5 24 1.94036 24 1.25C24 0.559644 23.5116 0 22.9091 0H1.09091C0.488417 0 0 0.559644 0 1.25C0 1.94036 0.488417 2.5 1.09091 2.5Z" fill="#EBEBF9"/>
<path d="M22.9091 8H1.09091C0.488417 8 0 8.55964 0 9.25C0 9.94036 0.488417 10.5 1.09091 10.5H22.9091C23.5116 10.5 24 9.94036 24 9.25C24 8.55964 23.5116 8 22.9091 8Z" fill="#EBEBF9"/>
<path d="M22.9091 16H1.09091C0.488417 16 0 16.5596 0 17.25C0 17.9404 0.488417 18.5 1.09091 18.5H22.9091C23.5116 18.5 24 17.9404 24 17.25C24 16.5596 23.5116 16 22.9091 16Z" fill="#EBEBF9"/>
</svg>