<svg width="24" height="24" viewBox="0 0 24 24" fill="none" xmlns="http://www.w3.org/2000/svg">
<path d="M9.81818 0H1.09091C0.801582 0 0.524105 0.114935 0.31952 0.31952C0.114935 0.524105 0 0.801582 0 1.09091V9.81818C0 10.1075 0.114935 10.385 0.31952 10.5896C0.524105 10.7942 0.801582 10.9091 1.09091 10.9091H9.81818C10.1075 10.9091 10.385 10.7942 10.5896 10.5896C10.7942 10.385 10.9091 10.1075 10.9091 9.81818V1.09091C10.9091 0.801582 10.7942 0.524105 10.5896 0.31952C10.385 0.114935 10.1075 0 9.81818 0ZM8.72727 8.72727H2.18182V2.18182H8.72727V8.72727Z" fill="#EBEBF9"/>
<path d="M22.9091 0H14.1818C13.8925 0 13.615 0.114935 13.4104 0.31952C13.2058 0.524105 13.0909 0.801582 13.0909 1.09091V9.81818C13.0909 10.1075 13.2058 10.385 13.4104 10.5896C13.615 10.7942 13.8925 10.9091 14.1818 10.9091H22.9091C23.1984 10.9091 23.4759 10.7942 23.6805 10.5896C23.885 10.385 24 10.1075 24 9.81818V1.09091C24 0.801582 23.885 0.524105 23.6805 0.31952C23.4759 0.114935 23.1984 0 22.9091 0ZM21.8182 8.72727H15.2727V2.18182H21.8182V8.72727Z" fill="#EBEBF9"/>
<path d="M9.81818 13.0909H1.09091C0.801582 13.0909 0.524105 13.2058 0.31952 13.4104C0.114935 13.615 0 13.8925 0 14.1818V22.9091C0 23.1984 0.114935 23.4759 0.31952 23.6805C0.524105 23.8851 0.801582 24 1.09091 24H9.81818C10.1075 24 10.385 23.8851 10.5896 23.6805C10.7942 23.4759 10.9091 23.1984 10.9091 22.9091V14.1818C10.9091 13.8925 10.7942 13.615 10.5896 13.4104C10.385 13.2058 10.1075 13.0909 9.81818 13.0909ZM8.72727 21.8182H2.18182V15.2727H8.72727V21.8182Z" fill="#EBEBF9"/>
<path d="M22.9091 13.0909H14.1818C13.8925 13.0909 13.615 13.2058 13.4104 13.4104C13.2058 13.615 13.0909 13.8925 13.0909 14.1818V22.9091C13.0909 23.1984 13.2058 23.4759 13.4104 23.6805C13.615 23.8851 13.8925 24 14.1818 24H22.9091C23.1984 24 23.4759 23.8851 23.6805 23.6805C23.885 23.4759 24 23.1984 24 22.9091V14.1818C24 13.8925 23.885 13.615 23.6805 13.4104C23.4759 13.2058 23.1984 13.0909 22.9091 13.0909ZM21.8182 21.8182H15.2727V15.2727H21.8182V21.8182Z" fill="#EBEBF9"/>
</svg>
